<svg id="visual" viewBox="0 0 900 600" width="900" height="600" xmlns="http://www.w3.org/2000/svg" xmlns:xlink="http://www.w3.org/1999/xlink" version="1.1"><rect x="0" y="0" width="900" height="600" fill="#FFFFFF"></rect><path d="M649 600L594.3 583.3C539.7 566.7 430.3 533.3 352 500C273.7 466.7 226.3 433.3 229.8 400C233.3 366.7 287.7 333.3 351 300C414.3 266.7 486.7 233.3 511.2 200C535.7 166.7 512.3 133.3 455.2 100C398 66.7 307 33.3 261.5 16.7L216 0L900 0L900 16.7C900 33.3 900 66.7 900 100C900 133.3 900 166.7 900 200C900 233.3 900 266.7 900 300C900 333.3 900 366.7 900 400C900 433.3 900 466.7 900 500C900 533.3 900 566.7 900 583.3L900 600Z" fill="#F7770F" stroke-linecap="round" stroke-linejoin="miter"></path></svg>