<svg id="visual" viewBox="0 0 600 900" width="600" height="900" xmlns="http://www.w3.org/2000/svg" xmlns:xlink="http://www.w3.org/1999/xlink" version="1.1"><rect x="0" y="0" width="600" height="900" fill="#FFFFFF"></rect><path d="M243 900L207 886.3C171 872.7 99 845.3 152.8 818C206.7 790.7 386.3 763.3 394 736.2C401.7 709 237.3 682 225.7 654.8C214 627.7 355 600.3 436.8 573C518.7 545.7 541.3 518.3 471.2 491C401 463.7 238 436.3 220.5 409C203 381.7 331 354.3 413.3 327C495.7 299.7 532.3 272.3 465.8 245.2C399.3 218 229.7 191 190.7 163.8C151.7 136.7 243.3 109.3 326.8 82C410.3 54.7 485.7 27.3 523.3 13.7L561 0L600 0L600 13.7C600 27.3 600 54.7 600 82C600 109.3 600 136.7 600 163.8C600 191 600 218 600 245.2C600 272.3 600 299.7 600 327C600 354.3 600 381.7 600 409C600 436.3 600 463.7 600 491C600 518.3 600 545.7 600 573C600 600.3 600 627.7 600 654.8C600 682 600 709 600 736.2C600 763.3 600 790.7 600 818C600 845.3 600 872.7 600 886.3L600 900Z" fill="#F7770F" stroke-linecap="round" stroke-linejoin="miter"></path></svg>